# This file uses centimeters as units for non-parametric coordinates.

mtllib Stickers.mtl
g default
v 0.649238 3.457664 -0.255537
v 0.666507 3.267713 -0.240892
v 0.657625 3.442447 -0.445487
v 0.649238 3.253069 -0.430842
v 0.656378 3.397988 -0.250936
v 0.649238 3.256510 -0.386219
v 0.649238 3.445384 -0.414811
v 0.649238 3.418776 -0.443618
vt 0.003074 0.005246
vt 0.314148 0.005246
vt 0.991819 0.761977
vt 0.991533 0.993934
vt 0.130339 0.993235
vt 0.004146 0.833839
vt 0.994557 0.000500
vt 0.000497 0.999500
vn 0.999474 0.017665 -0.027190
vn 0.998977 0.023597 -0.038573
vn 0.999068 0.022646 -0.036747
vn 0.999474 0.017665 -0.027190
vn 0.999559 0.015638 -0.025256
vn 0.999531 0.016316 -0.025903
vn 0.990125 0.067509 -0.122862
vn 0.912078 -0.301189 0.278206
s 1
g Sticker_3
usemtl initialShadingGroup
f 1/1/1 5/2/2 6/3/3 4/4/4 8/5/5 7/6/6
f 6/3/3 5/2/2 2/7/7
f 7/6/6 8/5/5 3/8/8
g default
v 0.652274 3.457664 0.055782
v 0.649238 3.267713 0.070427
v 0.649238 3.443019 -0.134168
v 0.660686 3.253069 -0.119523
v 0.649238 3.454235 0.011313
v 0.649238 3.417104 0.058909
v 0.655451 3.303407 -0.123404
v 0.655451 3.255985 -0.081698
v 0.649238 3.346392 -0.126718
v 0.649238 3.262303 0.000264
vt 0.003167 0.998837
vt 0.003165 0.630954
vt 0.492822 0.004130
vt 0.998745 0.004416
vt 0.998592 0.766064
vt 0.786174 0.999074
vt 0.002298 0.200425
vt 0.265442 0.001719
vt 0.999420 0.999500
vt 0.000499 0.000500
vn 1.000000 0.000000 0.000000
vn 0.999983 0.004535 0.003535
vn 0.999963 0.006793 0.005296
vn 1.000000 0.000000 0.000000
vn 1.000000 -0.000743 -0.000580
vn 0.999999 -0.000866 -0.000676
vn 0.994936 -0.079250 -0.061824
vn 0.989813 0.111279 0.088815
vn 0.989702 0.111313 0.089994
vn 0.985432 0.112315 0.127711
s 1
g Sticker_2
usemtl initialShadingGroup
f 10/9/9 18/10/10 17/11/11 11/12/12 13/13/13 14/14/14
f 14/14/14 13/13/13 9/17/15
f 15/16/16 16/15/17 12/18/18
f 17/11/11 18/10/10 16/15/17 15/16/16
g default
v 0.649238 3.440792 0.433801
v 0.672307 3.251201 0.415062
v 0.649238 3.459531 0.244212
v 0.649238 3.269941 0.225472
v 0.655651 3.303575 0.420239
v 0.655651 3.257453 0.351808
v 0.649238 3.331587 0.423007
v 0.649238 3.264633 0.279174
vt 0.000500 0.999501
vt 0.000500 0.424072
vt 0.716529 0.000501
vt 0.999497 0.000503
vt 0.999497 0.999501
vt 0.000500 0.276470
vt 0.333804 0.000500
vt 0.000499 0.000500
vn 1.000000 -0.000000 0.000000
vn 0.999931 0.010396 -0.005538
vn 0.999987 0.004469 -0.002381
vn 1.000000 -0.000000 0.000000
vn 1.000000 -0.000000 0.000000
vn 0.975675 0.191195 -0.107253
vn 0.974076 0.196642 -0.111841
vn 0.924964 0.315156 -0.212411
s 1
g Sticker_1
usemtl initialShadingGroup
f 19/19/19 25/20/20 26/21/21 22/22/22 21/23/23
f 24/25/24 23/24/25 20/26/26
f 26/21/21 25/20/20 23/24/25 24/25/24
